<?xml version="1.0" encoding="utf-8"?>
<!-- Generator: Adobe Illustrator 13.0.0, SVG Export Plug-In . SVG Version: 6.00 Build 14948)  -->
<svg version="1.2" baseProfile="tiny" id="Layer_1" xmlns="http://www.w3.org/2000/svg" xmlns:xlink="http://www.w3.org/1999/xlink"
	 x="0px" y="0px" width="427.731px" height="298.319px" viewBox="0 0 427.731 298.319" xml:space="preserve">
<polygon fill="#7A7AFF" stroke="#000" points="270.808,52.811 270.808,38.289 152.308,38.289 152.292,71.039 77.307,71.031 77.307,106.19 152.277,106.164 
	152.292,113.649 15.207,113.69 15.141,169.457 152.141,169.623 152.391,178.623 76.807,178.789 76.807,214.289 152.474,214.289 
	152.308,245.289 246.642,245.207 246.748,264.41 265.808,264.41 266.224,245.373 270.808,245.289 270.808,228.707 381.808,228.789 
	381.808,174.789 270.808,174.873 270.808,106.623 381.308,106.73 381.308,52.789 "/>
</svg>
