<svg xmlns="http://www.w3.org/2000/svg" width="41.819" height="40" viewBox="0 0 41.819 40">
  <path id="Icon_awesome-arrow-right" data-name="Icon awesome-arrow-right" d="M17.78,5.326l2.072-2.033a2.261,2.261,0,0,1,3.164,0l18.144,17.8a2.161,2.161,0,0,1,0,3.105L23.017,42a2.261,2.261,0,0,1-3.164,0L17.78,39.968a2.172,2.172,0,0,1,.037-3.142L29.065,26.311H2.24A2.214,2.214,0,0,1,0,24.113V21.182a2.214,2.214,0,0,1,2.24-2.2H29.065L17.818,8.468A2.157,2.157,0,0,1,17.78,5.326Z" transform="translate(0 -2.647)" fill="#fff"/>
</svg>
